<svg width="1024" height="1024" viewBox="0 0 1024 1024" fill="none" xmlns="http://www.w3.org/2000/svg">
<g clip-path="url(#clip0_98_606)">
<circle cx="512" cy="512" r="410" fill="#DAF1DE"/>
<path d="M778.5 579H1027.5V1028H-3.5V531.5C-3.5 531.5 103.822 496.062 174 478.5C228.427 464.879 259.089 457.299 314.5 448.5C378.822 438.286 480.5 432.5 480.5 432.5L608 429.5C608 429.5 649 429.5 649 424C649 418.5 608 418.5 608 418.5L513 414H608C608 414 716 415.5 716.5 429.5C717 443.5 608 454.5 608 454.5L443 468.5C443 468.5 320 477 334 518C348 559 426 563.5 443 566C460 568.5 778.5 579 778.5 579Z" fill="#0B2B26" stroke="#0B2B26"/>
<path d="M486 365H522H536V376.5V425H486V365Z" stroke="#2B6626"/>
<path d="M512.5 404.5C512.5 404.5 513.531 404.351 514 404C514.349 403.738 514.5 403.5 514.5 403.5" stroke="black"/>
<path d="M509 402L511 403L513 402V408V411L513.5 414H508.5L509 411V408V402Z" fill="black"/>
<path d="M501.288 379.714C501.394 379.502 503.388 379.407 504.516 379.407C504.516 379.407 505.517 379.543 505.5 379.407C505.484 379.271 506.051 379.613 507.206 378.482C508.533 377.183 509.335 376.33 509.608 376.352C509.743 376.363 509.877 376.439 509.914 376.595C509.952 376.751 509.854 377.05 510.013 377.095C510.418 377.209 510.882 377.094 510.946 377.24C510.994 377.349 511.019 377.655 511.082 377.594C511.343 377.342 511.649 376.732 512.174 376.659C512.79 376.573 513.6 376.869 514.399 377.162L514.4 377.162C515.005 377.384 515.345 378.178 515.987 378.617C516.043 378.655 515.947 378.655 515.959 378.655C516.085 378.655 516.926 378.539 518.197 379.602C518.728 380.046 520.68 379.752 520.498 380.924C520.419 381.434 520.096 382.056 520.365 382.213C520.577 382.338 522.258 382.674 522.639 383.582C522.715 383.765 522.474 384.072 522.639 384.208C522.755 384.304 523.341 384.34 523.4 384.749C523.428 384.941 523.255 385.152 523.362 385.288C523.468 385.423 523.8 385.604 523.678 385.82C523.271 386.544 522.773 387.317 523.073 387.505C523.256 387.62 524.011 388.17 525.225 388.498C526.486 388.839 528.407 389.164 528.287 389.742C528.21 390.109 527.727 390.696 528.105 390.937C528.346 391.091 528.873 391.338 528.701 391.525C528.047 392.236 527.619 393.359 527.32 393.618C527.162 393.754 526.733 393.888 526.763 394.012C526.784 394.097 527.763 394.1 527.641 394.562C527.514 395.044 527.196 395.756 525.982 396.335C525.822 396.411 525.964 396.371 526.199 396.44C527.563 396.84 528.608 397.436 528.856 397.907C528.923 398.034 528.985 398.24 528.894 398.331C528.297 398.923 526.953 399.28 526.638 399.805C526.592 399.882 526.708 399.965 526.578 400.047C526.163 400.307 525.688 400.59 525.714 400.837C525.725 400.943 525.821 401.019 525.937 401.146C526.419 401.675 527.563 402.023 527.139 402.572C527.013 402.735 527.077 402.944 526.946 403.024C526.821 403.101 526.475 403.144 526.155 403.382C526.01 403.489 525.934 403.623 525.955 403.719C525.976 403.815 526.09 403.872 526.069 403.999C526.047 404.126 525.895 404.317 525.877 404.432C525.86 404.547 525.975 404.585 525.963 404.644C525.951 404.702 525.822 404.807 525.466 404.846C523.83 405.029 522.615 405.798 522.454 405.008C522.427 404.874 522.893 404.55 522.702 404.439C522.589 404.374 522.302 404.337 522.098 404.301C521.421 404.781 519.848 405.787 518.8 405.336C518.53 405.221 518.287 405.189 518.096 405.115C517.875 405.028 518.027 404.61 517.765 404.574C516.984 404.469 515.819 404.641 515.263 404.12C515.158 404.022 515.158 403.831 514.971 403.736C514.784 403.64 514.37 403.72 514.26 403.591C514.137 403.447 513.601 403.249 513.809 403.042C513.846 403.005 514.099 402.844 514.366 402.681C514.248 402.701 514.136 402.68 514.058 402.579C513.787 402.232 513.505 401.803 512.968 401.596C512.515 401.422 512.053 400.774 511.3 401.125C510.78 401.367 509.775 401.114 508.977 401.482C508.31 401.79 507.379 401.838 506.75 401.538C505.988 401.175 505.285 400.759 504.825 400.601C504.706 400.76 504.565 400.889 504.397 400.972C504.22 401.059 503.879 401.18 503.587 401.173C502.721 401.152 502.416 400.74 499.564 400.681C498.202 400.653 496.745 401.109 496.302 400.835C495.878 400.573 495.534 400.215 495.291 399.85C495.027 399.457 495.032 398.671 494.518 398.463C494.161 398.319 493.719 398.242 493.691 397.969C493.643 397.507 493.802 397.101 493.748 396.852C493.624 396.273 493.969 395.305 493.477 395.186C493.12 395.1 492.495 395.121 492.36 394.761C492.255 394.481 491.942 393.873 492.266 393.749C492.565 393.635 493.223 393.742 493.578 393.294C493.953 392.822 494.414 392.348 494.25 391.966C494.163 391.764 493.74 391.523 493.894 391.339C494.167 391.011 495.468 390.604 495.243 389.96C495.165 389.739 494.973 389.509 495.08 389.373C495.186 389.239 495.637 389.164 495.92 388.765C496.13 388.467 496.1 388.053 496.237 387.734C496.286 387.62 496.39 387.641 496.488 387.59C496.922 387.368 498.318 387.649 498.434 386.942C498.501 386.538 498.178 385.508 498.783 384.986C499.081 384.728 500.594 384.785 500.41 383.975C500.37 383.802 499.961 383.697 499.869 383.358C499.812 383.146 499.784 382.673 500.122 382.471C500.314 382.357 500.647 382.456 500.797 382.23C501.123 381.738 500.897 380.495 501.288 379.714Z" fill="#2B6626" stroke="#2B6626" stroke-linecap="round"/>
<path d="M509.5 406C509.5 406 507.135 405.46 506 404.5C504.925 403.591 504 401.5 504 401.5" stroke="black"/>
<path d="M496.835 391.486C496.583 391.558 495.894 391.92 495.557 392.301C495.117 392.798 495.202 393.784 495.373 394.407C495.469 394.754 496.035 394.68 497.239 394.663C497.488 394.627 497.542 394.555 497.605 394.455C497.669 394.355 497.741 394.229 497.815 394.1" stroke="#8CCA53" stroke-linecap="round"/>
<path d="M500.789 394.218C500.591 394.487 500.191 395.25 500.073 395.731C499.925 396.329 500.026 397.011 500.162 397.211C500.419 397.589 501.023 397.52 501.938 397.503C502.152 397.499 502.257 397.395 502.33 397.313C502.596 397.017 502.586 395.735 502.351 394.656C502.298 394.414 502.151 394.237 501.934 394.092C501.825 394.036 501.717 394.019 501.58 394.009C501.444 394 501.282 394 501.116 394" stroke="#8CCA53" stroke-linecap="round"/>
<path d="M502.037 388.71C502.055 388.908 502.199 389.703 502.381 390.368C502.633 390.828 502.907 391.339 503.079 391.738C503.144 391.903 503.162 391.993 503.18 392.194" stroke="#8CCA53" stroke-linecap="round"/>
<path d="M502.254 388.764C502.597 388.873 503.321 389.269 503.804 389.589C504.425 389.999 505.211 390.687 505.266 390.679C505.968 390.578 504.904 389.439 504.813 388.983C504.722 388.62 504.649 388.33 504.64 388.121C504.631 388.021 504.613 387.931 504.595 387.621" stroke="#8CCA53" stroke-linecap="round"/>
<path d="M508.06 381.429C507.898 381.483 507.535 381.736 507.263 382.08C506.866 382.581 507.026 383.851 507.197 384.639C507.298 385.103 507.733 385.275 508.166 385.484C509.199 385.983 509.782 385.096 510.074 384.796C510.352 384.511 510.292 383.433 510.085 382.656C509.586 382.155 509.187 381.938 508.77 381.81C508.66 381.792 508.552 381.774 508.333 381.755" stroke="#8CCA53" stroke-linecap="round"/>
<path d="M509 384C509.144 384.054 509.578 384.415 509.933 384.788C510.015 384.888 510.105 385.014 510.196 385.096C510.288 385.179 510.377 385.215 510.47 385.252" stroke="#8CCA53" stroke-linecap="round"/>
<path d="M511 387.544C511.018 387.851 511.126 388.395 511.244 388.921C511.377 389.515 511.833 389.939 512.285 390.102C512.881 390.318 513.394 390.086 513.612 389.914C513.994 389.451 514.139 389.07 514.194 388.547C514.212 388.185 514.212 387.628 514.158 387" stroke="#8CCA53" stroke-linecap="round"/>
<path d="M515.985 391.317C515.985 391.425 515.985 392.397 516.039 393.812C516.058 394.314 516.201 394.365 516.49 394.393C516.779 394.421 517.246 394.421 517.541 394.403C517.835 394.385 517.943 394.349 518.272 394.257" stroke="#8CCA53" stroke-linecap="round"/>
<path d="M516.693 392.733C516.729 392.733 516.909 392.697 517.208 392.625C517.453 392.552 517.672 392.497 517.916 392.47C518.053 392.461 518.215 392.461 518.381 392.461" stroke="#8CCA53" stroke-linecap="round"/>
<path d="M516.421 390.936C516.493 390.936 516.889 390.936 517.523 390.909C517.798 390.882 517.978 390.828 518.142 390.801C518.307 390.773 518.451 390.773 518.599 390.773" stroke="#8CCA53" stroke-linecap="round"/>
<path d="M519.955 396.816C519.703 396.852 519.176 396.925 518.949 396.979C518.502 397.085 518.594 397.901 518.638 398.509C518.656 398.743 518.773 398.811 518.891 398.875C519.406 399.154 519.952 399.103 520.614 399.302C520.881 399.382 521.079 399.501 521.224 399.664C521.295 399.744 521.297 399.863 521.279 399.972C521.262 400.082 521.208 400.189 521.126 400.263C520.646 400.445 519.724 400.518 518.827 400.5C518.486 400.482 518.378 400.446 518.104 400.409" stroke="#8CCA53" stroke-linecap="round"/>
<path d="M524.785 393.263C524.785 393.335 525.055 393.839 525.472 394.592C525.638 394.967 525.746 395.113 525.882 395.276C525.928 395.385 525.928 395.546 526.037 395.876" stroke="#8CCA53" stroke-linecap="round"/>
<path d="M522.711 394.42C523.049 394.186 523.964 393.594 524.588 393.208C525.057 392.919 525.594 392.631 525.847 392.424C525.921 392.364 526.023 392.306 526.113 392.276C526.202 392.245 526.275 392.245 526.351 392.245" stroke="#8CCA53" stroke-linecap="round"/>
<rect x="486" y="360" width="17" height="5" fill="#2B6626" stroke="#2B6626"/>
<path d="M488.193 361.403V361.091H490.375V361.403H489.46V364H489.108V361.403H488.193ZM490.647 364V361.818H490.971V362.148H490.993C491.033 362.04 491.105 361.952 491.209 361.885C491.313 361.818 491.431 361.784 491.561 361.784C491.586 361.784 491.617 361.785 491.654 361.786C491.691 361.786 491.719 361.788 491.738 361.79V362.131C491.726 362.128 491.7 362.124 491.659 362.118C491.62 362.111 491.578 362.108 491.533 362.108C491.427 362.108 491.332 362.13 491.249 362.175C491.167 362.218 491.101 362.279 491.053 362.357C491.006 362.433 490.982 362.521 490.982 362.619V364H490.647ZM492.983 364.045C492.773 364.045 492.592 363.999 492.439 363.906C492.288 363.812 492.171 363.682 492.088 363.514C492.007 363.346 491.966 363.15 491.966 362.926C491.966 362.703 492.007 362.506 492.088 362.335C492.171 362.164 492.285 362.03 492.432 361.935C492.58 361.838 492.752 361.79 492.949 361.79C493.063 361.79 493.175 361.809 493.286 361.847C493.397 361.884 493.498 361.946 493.588 362.031C493.679 362.116 493.752 362.227 493.806 362.366C493.86 362.506 493.887 362.677 493.887 362.881V363.023H492.205V362.733H493.546C493.546 362.61 493.521 362.5 493.472 362.403C493.424 362.307 493.355 362.231 493.265 362.175C493.176 362.119 493.07 362.091 492.949 362.091C492.816 362.091 492.7 362.124 492.603 362.19C492.506 362.256 492.432 362.341 492.38 362.446C492.328 362.551 492.301 362.664 492.301 362.784V362.977C492.301 363.142 492.33 363.282 492.387 363.396C492.444 363.51 492.525 363.597 492.627 363.656C492.729 363.715 492.848 363.744 492.983 363.744C493.071 363.744 493.151 363.732 493.222 363.707C493.294 363.682 493.356 363.644 493.408 363.594C493.46 363.543 493.5 363.479 493.529 363.403L493.853 363.494C493.819 363.604 493.761 363.701 493.681 363.784C493.6 363.866 493.501 363.931 493.382 363.977C493.264 364.023 493.131 364.045 492.983 364.045ZM495.311 364.045C495.101 364.045 494.92 363.999 494.767 363.906C494.616 363.812 494.499 363.682 494.417 363.514C494.335 363.346 494.294 363.15 494.294 362.926C494.294 362.703 494.335 362.506 494.417 362.335C494.499 362.164 494.614 362.03 494.76 361.935C494.908 361.838 495.08 361.79 495.277 361.79C495.391 361.79 495.503 361.809 495.614 361.847C495.725 361.884 495.826 361.946 495.917 362.031C496.007 362.116 496.08 362.227 496.134 362.366C496.188 362.506 496.215 362.677 496.215 362.881V363.023H494.533V362.733H495.874C495.874 362.61 495.849 362.5 495.8 362.403C495.752 362.307 495.683 362.231 495.593 362.175C495.504 362.119 495.399 362.091 495.277 362.091C495.144 362.091 495.028 362.124 494.931 362.19C494.834 362.256 494.76 362.341 494.708 362.446C494.656 362.551 494.63 362.664 494.63 362.784V362.977C494.63 363.142 494.658 363.282 494.715 363.396C494.773 363.51 494.853 363.597 494.955 363.656C495.057 363.715 495.176 363.744 495.311 363.744C495.4 363.744 495.479 363.732 495.55 363.707C495.622 363.682 495.684 363.644 495.736 363.594C495.788 363.543 495.828 363.479 495.857 363.403L496.181 363.494C496.147 363.604 496.089 363.701 496.009 363.784C495.928 363.866 495.829 363.931 495.711 363.977C495.592 364.023 495.459 364.045 495.311 364.045Z" fill="white"/>
<path d="M387 381H423H437V392.5V441H387V381Z" stroke="#2B6626"/>
<rect x="387" y="376" width="17" height="5" fill="#2B6626" stroke="#2B6626"/>
<path d="M388.352 380V377.091H389.335C389.563 377.091 389.75 377.132 389.895 377.214C390.041 377.296 390.149 377.406 390.219 377.545C390.289 377.685 390.324 377.84 390.324 378.011C390.324 378.183 390.289 378.339 390.219 378.479C390.15 378.619 390.043 378.731 389.898 378.814C389.753 378.896 389.567 378.938 389.341 378.938H388.636V378.625H389.33C389.486 378.625 389.611 378.598 389.706 378.544C389.801 378.49 389.869 378.417 389.912 378.325C389.955 378.232 389.977 378.128 389.977 378.011C389.977 377.895 389.955 377.791 389.912 377.699C389.869 377.607 389.8 377.535 389.705 377.483C389.609 377.43 389.482 377.403 389.324 377.403H388.705V380H388.352ZM391.737 380.045C391.527 380.045 391.346 379.999 391.193 379.906C391.042 379.812 390.925 379.682 390.842 379.514C390.761 379.346 390.72 379.15 390.72 378.926C390.72 378.703 390.761 378.506 390.842 378.335C390.925 378.164 391.039 378.03 391.186 377.935C391.334 377.838 391.506 377.79 391.703 377.79C391.817 377.79 391.929 377.809 392.04 377.847C392.151 377.884 392.251 377.946 392.342 378.031C392.433 378.116 392.506 378.227 392.56 378.366C392.614 378.506 392.641 378.677 392.641 378.881V379.023H390.959V378.733H392.3C392.3 378.61 392.275 378.5 392.226 378.403C392.178 378.307 392.108 378.231 392.018 378.175C391.929 378.119 391.824 378.091 391.703 378.091C391.57 378.091 391.454 378.124 391.357 378.19C391.26 378.256 391.186 378.341 391.134 378.446C391.081 378.551 391.055 378.664 391.055 378.784V378.977C391.055 379.142 391.084 379.282 391.141 379.396C391.198 379.51 391.278 379.597 391.381 379.656C391.483 379.715 391.602 379.744 391.737 379.744C391.825 379.744 391.905 379.732 391.976 379.707C392.048 379.682 392.11 379.644 392.162 379.594C392.214 379.543 392.254 379.479 392.283 379.403L392.607 379.494C392.572 379.604 392.515 379.701 392.435 379.784C392.354 379.866 392.255 379.931 392.136 379.977C392.018 380.023 391.885 380.045 391.737 380.045ZM393.151 380V377.818H393.474V378.148H393.497C393.537 378.04 393.609 377.952 393.713 377.885C393.817 377.818 393.935 377.784 394.065 377.784C394.09 377.784 394.121 377.785 394.158 377.786C394.195 377.786 394.223 377.788 394.241 377.79V378.131C394.23 378.128 394.204 378.124 394.163 378.118C394.124 378.111 394.081 378.108 394.037 378.108C393.931 378.108 393.836 378.13 393.753 378.175C393.67 378.218 393.605 378.279 393.557 378.357C393.509 378.433 393.486 378.521 393.486 378.619V380H393.151ZM396.184 378.307L395.883 378.392C395.864 378.342 395.836 378.293 395.799 378.246C395.763 378.197 395.714 378.158 395.652 378.126C395.589 378.095 395.509 378.08 395.412 378.08C395.278 378.08 395.167 378.11 395.078 378.172C394.99 378.232 394.946 378.31 394.946 378.403C394.946 378.487 394.976 378.553 395.037 378.601C395.097 378.649 395.192 378.689 395.321 378.722L395.645 378.801C395.84 378.848 395.985 378.921 396.081 379.018C396.176 379.115 396.224 379.24 396.224 379.392C396.224 379.517 396.188 379.629 396.116 379.727C396.045 379.826 395.946 379.903 395.818 379.96C395.69 380.017 395.541 380.045 395.372 380.045C395.149 380.045 394.965 379.997 394.819 379.901C394.673 379.804 394.581 379.663 394.542 379.477L394.86 379.398C394.891 379.515 394.948 379.603 395.032 379.662C395.118 379.721 395.229 379.75 395.366 379.75C395.522 379.75 395.646 379.717 395.738 379.651C395.831 379.583 395.877 379.503 395.877 379.409C395.877 379.333 395.851 379.27 395.798 379.219C395.745 379.167 395.663 379.128 395.554 379.102L395.19 379.017C394.99 378.97 394.843 378.896 394.75 378.797C394.657 378.696 394.61 378.571 394.61 378.42C394.61 378.297 394.645 378.188 394.714 378.094C394.784 377.999 394.879 377.925 395 377.871C395.121 377.817 395.258 377.79 395.412 377.79C395.627 377.79 395.797 377.837 395.92 377.932C396.044 378.027 396.132 378.152 396.184 378.307ZM397.615 380.045C397.418 380.045 397.245 379.999 397.097 379.905C396.949 379.811 396.833 379.68 396.75 379.511C396.668 379.343 396.626 379.146 396.626 378.92C396.626 378.693 396.668 378.495 396.75 378.325C396.833 378.156 396.949 378.024 397.097 377.93C397.245 377.837 397.418 377.79 397.615 377.79C397.812 377.79 397.984 377.837 398.132 377.93C398.281 378.024 398.396 378.156 398.479 378.325C398.562 378.495 398.604 378.693 398.604 378.92C398.604 379.146 398.562 379.343 398.479 379.511C398.396 379.68 398.281 379.811 398.132 379.905C397.984 379.999 397.812 380.045 397.615 380.045ZM397.615 379.744C397.765 379.744 397.888 379.706 397.984 379.629C398.081 379.553 398.152 379.452 398.199 379.327C398.245 379.202 398.268 379.066 398.268 378.92C398.268 378.775 398.245 378.639 398.199 378.513C398.152 378.387 398.081 378.285 397.984 378.207C397.888 378.13 397.765 378.091 397.615 378.091C397.465 378.091 397.342 378.13 397.246 378.207C397.149 378.285 397.078 378.387 397.031 378.513C396.985 378.639 396.962 378.775 396.962 378.92C396.962 379.066 396.985 379.202 397.031 379.327C397.078 379.452 397.149 379.553 397.246 379.629C397.342 379.706 397.465 379.744 397.615 379.744ZM399.451 378.688V380H399.115V377.818H399.439V378.159H399.468C399.519 378.048 399.596 377.959 399.701 377.892C399.805 377.824 399.939 377.79 400.104 377.79C400.252 377.79 400.381 377.82 400.492 377.881C400.603 377.94 400.689 378.031 400.75 378.153C400.812 378.275 400.843 378.428 400.843 378.614V380H400.507V378.636C400.507 378.465 400.463 378.331 400.374 378.236C400.285 378.139 400.163 378.091 400.007 378.091C399.9 378.091 399.805 378.114 399.721 378.161C399.637 378.207 399.571 378.275 399.523 378.364C399.475 378.453 399.451 378.561 399.451 378.688Z" fill="white"/>
<path d="M415.288 390.015L415.368 391.104C415.377 391.15 415.359 391.201 415.382 391.246C415.405 391.291 415.44 391.335 415.476 391.371C415.62 391.505 416.007 391.641 416.05 391.838C416.072 391.941 416.039 391.972 415.993 392.064C415.935 392.179 415.815 392.302 415.709 392.346C415.607 392.389 415.543 392.544 415.557 392.654C415.565 392.717 415.572 392.785 415.576 392.889C415.574 393.072 415.571 393.228 415.566 393.362C415.545 393.93 415.102 394.284 414.537 394.343C414.285 394.369 414.08 394.406 414.042 394.49C413.97 394.651 413.849 394.812 413.8 394.989C413.691 395.39 413.897 395.761 414.269 395.944C414.301 395.959 414.333 395.975 414.363 395.991C414.455 396.038 414.561 396.04 414.646 396.075C414.721 396.107 414.696 396.306 414.678 396.502C414.654 396.766 414.338 396.922 414.158 397.056C413.96 397.203 413.853 397.403 413.719 397.692C413.603 397.942 413.727 398.268 413.888 398.557C414.027 398.806 414.05 399.033 414.117 399.328C414.209 399.729 414.22 400.534 414.288 401.11C414.319 401.379 414.346 401.574 414.373 401.757C414.408 402.001 414.435 402.304 414.458 402.683C414.472 402.922 414.525 403.116 414.561 403.325C414.607 403.594 414.606 403.971 414.619 404.27C414.623 404.337 414.633 404.381 414.637 404.872L414.583 405.675C414.548 406.2 414.72 406.72 415.008 407.16C415.016 407.172 415.025 407.185 415.033 407.197C415.201 407.455 415.369 407.734 415.538 407.992C415.692 408.228 416.04 408.707 416.414 409.051C416.659 409.276 416.632 410.54 416.5 411.359C416.451 411.658 416.17 411.93 415.974 412.306C415.745 412.746 415.483 413.017 415.315 413.352C415.142 413.695 414.992 414.007 414.761 414.453C414.606 414.751 414.375 414.997 414.151 415.269C413.952 415.51 413.744 415.778 413.568 416.071C413.539 416.119 413.521 416.171 413.512 416.225C413.478 416.422 413.586 416.61 413.693 416.779C413.893 417.094 414.1 417.417 414.177 417.597C414.22 417.702 414.247 417.785 414.276 417.996M415.288 390.016C415.261 389.883 415.136 389.545 414.984 389.277C414.888 389.109 414.769 388.938 414.571 388.826C414.37 388.712 414.222 388.475 414.038 388.305C413.9 388.178 413.666 388.109 413.131 388.046C412.063 387.921 411.298 388.081 411.222 388.157C411.087 388.291 410.913 388.357 410.742 388.464C410.576 388.569 410.419 388.616 410.254 388.736C410.067 388.872 409.944 388.999 409.819 389.137C409.667 389.303 409.559 389.444 409.451 389.592C409.308 389.786 409.352 390.121 409.334 390.336C409.316 390.547 409.262 391.372 409.311 391.909C409.33 392.117 409.495 392.358 409.634 392.559C409.734 392.705 409.823 392.846 409.951 392.998C410.04 393.104 410.163 393.177 410.253 393.281C410.273 393.305 410.29 393.331 410.305 393.361C410.32 393.393 410.325 393.41 410.329 393.445C410.351 393.68 410.142 393.874 409.935 393.987C409.87 394.023 409.81 394.062 409.766 394.101C409.692 394.167 409.613 394.222 409.564 394.297C409.445 394.479 409.576 394.773 409.657 395.063C409.683 395.154 409.667 395.271 409.622 395.357C409.44 395.708 408.986 395.648 408.748 395.741C408.564 395.814 408.394 395.95 408.264 396.088C408.114 396.247 408.008 396.423 407.847 396.676C407.729 396.862 407.48 397.081 407.3 397.309C407.144 397.507 407.022 397.724 406.95 397.902C406.932 397.947 406.914 397.991 406.892 398.031C406.852 398.103 406.757 398.122 406.693 398.07C406.545 397.951 406.298 397.753 406.135 397.642C405.697 397.342 404.661 397.543 404.086 397.668C403.787 397.733 403.7 398.1 403.623 398.427C403.527 398.831 403.308 399.159 403.125 399.424C402.876 399.785 402.494 400.163 402.018 400.65C401.651 401.027 401.484 401.278 401.288 401.71C401.124 402.069 401.119 402.421 400.889 402.992C400.503 403.946 400.404 404.206 400.264 404.52C400.129 404.823 400.067 405.126 400.018 405.592C399.923 406.488 400.234 406.882 400.319 407.218C400.411 407.579 400.487 407.887 400.564 408.173C400.657 408.514 400.684 408.849 400.719 409.142C400.763 409.516 400.851 410.184 400.95 410.654C401.077 411.259 401.356 411.971 401.525 412.237C401.716 412.538 401.903 412.794 402.086 413.004C402.28 413.226 402.59 413.325 402.941 413.402C403.256 413.471 404.586 413.52 405.514 413.368C405.982 413.291 406.097 412.728 406.329 412.496C406.376 412.449 406.461 412.475 406.518 412.509C406.765 412.66 406.785 413.059 406.841 414.268C406.866 414.8 407.094 415.039 407.29 415.304C407.442 415.511 407.557 415.618 407.637 415.775C407.691 415.88 407.73 415.993 407.753 416.109C407.776 416.223 407.783 416.331 407.844 416.43C407.92 416.553 408.025 416.711 408.152 416.852C408.501 417.237 408.105 417.981 408.006 418.253C407.853 418.672 407.809 419.221 407.753 419.535C407.696 419.855 407.501 420.156 407.34 420.428C407.17 420.713 407.067 421.047 406.933 421.389C406.767 421.811 406.491 422.177 406.414 422.505C406.305 422.961 406.294 423.306 406.155 423.606C405.999 423.94 405.79 424.351 405.677 424.68C405.587 424.942 405.383 425.16 405.187 425.412C404.96 425.703 404.766 425.955 404.598 426.2C404.423 426.454 404.233 426.791 404.064 427.126C403.904 427.445 403.938 427.781 403.882 428.082C403.832 428.347 403.786 428.587 403.685 428.857C403.646 428.959 403.594 429.055 403.532 429.144C403.322 429.448 403.128 429.665 402.957 429.873C402.924 429.922 402.891 429.985 402.85 430.079C402.776 430.247 402.736 430.426 402.711 430.607C402.67 430.899 402.61 431.291 402.585 431.671C402.538 432.354 402.423 432.939 402.269 433.497C402.127 434.013 402.031 434.446 401.87 434.69C401.723 434.912 401.581 435.209 401.448 435.533C401.411 435.626 401.367 435.716 401.318 435.802C401.174 436.053 401.021 436.339 400.936 436.642C400.928 436.69 400.919 436.735 400.91 436.8C400.897 436.894 400.901 437.004 400.98 437.056C401.004 437.071 401.035 437.076 401.064 437.084C401.171 437.118 401.328 437.077 401.437 437.152C401.532 437.217 401.649 437.212 402.01 437.256C402.206 437.279 402.366 437.313 402.478 437.362C402.609 437.42 402.77 437.498 402.885 437.526C403.006 437.555 403.143 437.596 403.299 437.622C403.613 437.674 403.943 437.722 404.012 437.616C404.022 437.6 404.033 437.583 404.044 437.567C404.145 437.418 404.341 437.33 404.513 437.382C404.808 437.515 405.144 437.598 405.481 437.668C406.333 437.779 407.666 437.835 407.915 437.716C408.16 437.597 408.471 437.552 408.686 437.304C408.734 437.248 408.748 437.179 408.755 437.073C408.762 436.968 408.771 436.785 408.526 436.761C407.832 436.692 407.22 436.687 406.952 436.594C406.671 436.496 406.277 436.281 406.118 435.965C405.97 435.673 405.85 435.001 405.894 434.487C405.929 434.069 405.939 433.739 406.084 433.421C406.238 433.08 406.463 432.882 406.56 432.585C406.659 432.285 406.738 432.025 406.869 431.615C406.967 431.309 407.137 430.975 407.311 430.639L407.325 430.613C407.535 430.208 407.694 429.902 407.949 429.594C408.146 429.357 408.452 429.218 408.588 428.932C408.749 428.59 408.884 428.301 409.022 427.963C409.17 427.599 409.247 427.138 409.359 426.855C409.521 426.441 409.692 425.919 409.907 425.669C410.236 425.286 410.433 424.957 410.699 424.666C410.824 424.529 410.934 424.375 411.011 424.243C411.074 424.137 411.172 424.129 411.247 424.228C411.289 424.284 411.331 424.34 411.373 424.41C411.527 424.731 411.608 425.048 411.724 425.316C411.85 425.609 411.932 425.936 411.997 426.236C412.06 426.53 412.253 426.868 412.376 427.205C412.495 427.533 412.668 427.823 412.874 428.272C413.085 428.734 413.305 429.201 413.343 429.499C413.379 429.778 413.566 430.09 413.695 430.426C413.884 430.921 413.849 431.323 414.059 431.583C414.348 431.94 415.204 432.586 415.321 433.103C415.399 433.445 415.533 433.8 415.616 434.141C415.693 434.462 415.838 434.71 416.037 435.047C416.227 435.369 416.485 435.778 416.548 436.107C416.605 436.4 416.794 436.849 416.934 437.201C417.054 437.501 417.093 437.988 417.443 437.995C418.429 438.016 418.727 437.973 419.025 437.82C419.299 437.68 419.562 437.507 419.832 437.353C420.112 437.192 420.406 437.054 420.708 436.893C421.01 436.732 421.273 436.497 421.557 436.405C421.838 436.314 422.108 436.166 422.427 436.015C422.707 435.882 422.991 435.693 423.254 435.513C423.549 435.31 423.87 435.173 423.969 434.899C423.996 434.821 424.016 434.705 423.982 434.62C423.869 434.334 423.701 434.112 423.618 434.015M414.232 417.802C414.33 418.023 414.178 418.524 414.296 418.984C414.445 419.559 414.556 419.849 414.661 420.162C414.811 420.611 414.879 420.922 414.935 421.271C415.023 421.815 415.272 422.371 415.377 422.728C415.489 423.108 415.803 423.5 415.994 423.899C416.079 424.077 416.099 424.282 416.12 424.898C416.17 426.355 416.211 427.406 416.365 427.552C416.594 427.769 416.87 427.907 417.108 428.137C417.525 428.538 417.572 428.883 417.649 429.169C417.736 429.49 417.754 429.794 417.795 430.49L417.796 430.52C417.82 430.916 418.328 431.156 418.602 431.337C418.88 431.522 419.114 431.88 419.192 432.208C419.262 432.502 419.283 433.035 419.416 433.387C419.527 433.682 420.039 433.652 420.411 433.784C420.889 433.954 421.316 434.307 421.624 434.488C422.07 434.751 422.402 434.41 422.699 434.259C422.792 434.212 422.893 434.183 422.989 434.143C423.091 434.099 423.191 434.057 423.301 434.029C423.392 434.015 423.503 434.015 423.618 434.015" stroke="black" stroke-linecap="round"/>
</g>
<defs>
<clipPath id="clip0_98_606">
<rect width="1024" height="1024" fill="white"/>
</clipPath>
</defs>
</svg>
