<svg width="200" height="200" viewBox="0 0 200 200" fill="none" xmlns="http://www.w3.org/2000/svg">
<path d="M60.459 80.876H139.904C145.486 80.876 150.011 85.4011 150.011 90.9824V160.318C150.011 163.734 148.285 166.919 145.424 168.784L105.7 194.68C102.346 196.866 98.0172 196.866 94.6631 194.68L54.9395 168.784C52.0782 166.919 50.3525 163.734 50.3525 160.318V90.9824C50.3525 85.4011 54.8777 80.876 60.459 80.876Z" fill="url(#paint0_linear_306_4583)" stroke="url(#paint1_linear_306_4583)" stroke-width="2.88738"/>
<g filter="url(#filter0_d_306_4583)">
<path d="M88.7142 18.2624C95.861 14.1361 104.666 14.1361 111.813 18.2624L156.979 44.3387C164.126 48.465 168.528 56.0906 168.528 64.3431V116.496C168.528 124.748 164.126 132.374 156.979 136.5L111.813 162.577C104.666 166.703 95.861 166.703 88.7142 162.577L43.5485 136.5C36.4017 132.374 31.999 124.748 31.999 116.496V64.3431C31.999 56.0906 36.4017 48.465 43.5485 44.3387L88.7142 18.2624Z" fill="black" style="mix-blend-mode:multiply" shape-rendering="crispEdges"/>
</g>
<path d="M88.7142 18.2624C95.861 14.1361 104.666 14.1361 111.813 18.2624L156.979 44.3387C164.126 48.465 168.528 56.0906 168.528 64.3431V116.496C168.528 124.748 164.126 132.374 156.979 136.5L111.813 162.577C104.666 166.703 95.861 166.703 88.7142 162.577L43.5485 136.5C36.4017 132.374 31.999 124.748 31.999 116.496V64.3431C31.999 56.0906 36.4017 48.465 43.5485 44.3387L88.7142 18.2624Z" fill="#0C3855"/>
<path d="M88.7142 18.2624C95.861 14.1361 104.666 14.1361 111.813 18.2624L156.979 44.3387C164.126 48.465 168.528 56.0906 168.528 64.3431V116.496C168.528 124.748 164.126 132.374 156.979 136.5L111.813 162.577C104.666 166.703 95.861 166.703 88.7142 162.577L43.5485 136.5C36.4017 132.374 31.999 124.748 31.999 116.496V64.3431C31.999 56.0906 36.4017 48.465 43.5485 44.3387L88.7142 18.2624Z" fill="#FEBDA3"/>
<path d="M88.7142 6.66812C95.861 2.54188 104.666 2.54187 111.813 6.66812L156.979 32.7445C164.126 36.8707 168.528 44.4964 168.528 52.7489V104.902C168.528 113.154 164.126 120.78 156.979 124.906L111.813 150.982C104.666 155.109 95.861 155.109 88.7142 150.982L43.5485 124.906C36.4017 120.78 31.999 113.154 31.999 104.902V52.7489C31.999 44.4964 36.4017 36.8707 43.5485 32.7445L88.7142 6.66812Z" fill="#BE7D63"/>
<path d="M93.2402 20.7549C97.587 18.2454 102.942 18.2454 107.289 20.7549L147.043 43.7061C151.39 46.2158 154.067 50.8547 154.067 55.874V101.776C154.067 106.796 151.39 111.435 147.043 113.944L107.289 136.896C102.942 139.405 97.587 139.405 93.2402 136.896L53.4863 113.944C49.1394 111.435 46.4619 106.796 46.4619 101.776V55.874C46.4619 50.8546 49.1394 46.2158 53.4863 43.7061L93.2402 20.7549Z" fill="#6C2B11" stroke="#EAA98F" stroke-width="5"/>
<rect x="76.4453" y="78.9844" width="33.8164" height="33.8164" rx="2" transform="rotate(-45 76.4453 78.9844)" fill="#EFB49B"/>
<defs>
<filter id="filter0_d_306_4583" x="20.4495" y="15.1675" width="159.628" height="173.603" filterUnits="userSpaceOnUse" color-interpolation-filters="sRGB">
<feFlood flood-opacity="0" result="BackgroundImageFix"/>
<feColorMatrix in="SourceAlpha" type="matrix" values="0 0 0 0 0 0 0 0 0 0 0 0 0 0 0 0 0 0 127 0" result="hardAlpha"/>
<feOffset dy="11.5495"/>
<feGaussianBlur stdDeviation="5.77476"/>
<feComposite in2="hardAlpha" operator="out"/>
<feColorMatrix type="matrix" values="0 0 0 0 0 0 0 0 0 0 0 0 0 0 0 0 0 0 0.25 0"/>
<feBlend mode="normal" in2="BackgroundImageFix" result="effect1_dropShadow_306_4583"/>
<feBlend mode="normal" in="SourceGraphic" in2="effect1_dropShadow_306_4583" result="shape"/>
</filter>
<linearGradient id="paint0_linear_306_4583" x1="100.182" y1="134.877" x2="100.182" y2="200" gradientUnits="userSpaceOnUse">
<stop stop-color="#7B1012"/>
<stop offset="1" stop-color="#EA1140"/>
</linearGradient>
<linearGradient id="paint1_linear_306_4583" x1="100.182" y1="121.152" x2="100.182" y2="200" gradientUnits="userSpaceOnUse">
<stop stop-color="#E67D2D"/>
<stop offset="1" stop-color="#FCDC60"/>
</linearGradient>
</defs>
</svg>
