<svg width="200" height="200" viewBox="0 0 200 200" fill="none" xmlns="http://www.w3.org/2000/svg">
<path d="M63.167 94.686H136.658C137.811 94.686 138.745 95.6206 138.745 96.7729V193.154C138.745 194.665 137.188 195.676 135.808 195.06L101.613 179.8C100.531 179.317 99.2943 179.317 98.2119 179.8L64.0176 195.06C62.6374 195.676 61.0801 194.665 61.0801 193.154V96.7729C61.0802 95.6206 62.0147 94.6861 63.167 94.686Z" fill="url(#paint0_linear_306_4746)" stroke="url(#paint1_linear_306_4746)" stroke-width="2.08671"/>
<g clip-path="url(#clip0_306_4746)">
<path d="M56.2725 104.094L9.60433 77.1499C2.56642 89.3399 6.74303 104.927 18.9331 111.965L43.5292 126.166L56.2725 104.094Z" fill="#432C00"/>
<path d="M51.4365 78.5166L5.03338 51.7257C4.88703 51.6412 4.6999 51.6914 4.61541 51.8377C-2.33802 63.8814 1.78846 79.2816 13.8321 86.235L38.6932 100.589L51.4365 78.5166Z" fill="#432C00"/>
</g>
<g clip-path="url(#clip1_306_4746)">
<path d="M51.4365 68.0972L4.7684 41.1533C-2.26952 53.3433 1.90709 68.9307 14.0971 75.9686L38.6932 90.1692L51.4365 68.0972Z" fill="url(#paint2_linear_306_4746)"/>
<path d="M51.4365 68.0972L4.7684 41.1533C-2.26952 53.3433 1.90709 68.9307 14.0971 75.9686L38.6932 90.1692L51.4365 68.0972Z" fill="#FFCB6B" style="mix-blend-mode:color"/>
<path d="M56.2725 93.6733L9.60433 66.7295C2.56642 78.9195 6.74303 94.5068 18.9331 101.545L43.5292 115.745L56.2725 93.6733Z" fill="url(#paint3_linear_306_4746)"/>
<path d="M56.2725 93.6733L9.60433 66.7295C2.56642 78.9195 6.74303 94.5068 18.9331 101.545L43.5292 115.745L56.2725 93.6733Z" fill="#FFCB6B" style="mix-blend-mode:color"/>
</g>
<g clip-path="url(#clip2_306_4746)">
<path d="M143.728 104.094L190.396 77.1499C197.434 89.3399 193.257 104.927 181.067 111.965L156.471 126.166L143.728 104.094Z" fill="#432C00"/>
<path d="M148.564 78.5166L194.968 51.7257C195.114 51.6412 195.301 51.6914 195.386 51.8377C202.339 63.8814 198.213 79.2816 186.169 86.235L161.308 100.589L148.564 78.5166Z" fill="#432C00"/>
</g>
<g clip-path="url(#clip3_306_4746)">
<path d="M148.563 68.0972L195.232 41.1533C202.27 53.3433 198.093 68.9307 185.903 75.9686L161.307 90.1692L148.563 68.0972Z" fill="url(#paint4_linear_306_4746)"/>
<path d="M148.563 68.0972L195.232 41.1533C202.27 53.3433 198.093 68.9307 185.903 75.9686L161.307 90.1692L148.563 68.0972Z" fill="#FFCB6B" style="mix-blend-mode:color"/>
<path d="M143.728 93.6733L190.396 66.7295C197.434 78.9195 193.257 94.5068 181.067 101.545L156.471 115.745L143.728 93.6733Z" fill="url(#paint5_linear_306_4746)"/>
<path d="M143.728 93.6733L190.396 66.7295C197.434 78.9195 193.257 94.5068 181.067 101.545L156.471 115.745L143.728 93.6733Z" fill="#FFCB6B" style="mix-blend-mode:color"/>
</g>
<g filter="url(#filter0_d_306_4746)">
<path d="M91.8278 17.2459C96.9861 14.2677 103.341 14.2677 108.5 17.2458L161.153 47.6451C166.311 50.6232 169.489 56.127 169.489 62.0833V122.882C169.489 128.838 166.311 134.342 161.153 137.32L108.5 167.719C103.341 170.697 96.9861 170.697 91.8278 167.719L39.1748 137.32C34.0165 134.342 30.8389 128.838 30.8389 122.882V62.0833C30.8389 56.127 34.0165 50.6232 39.1748 47.6451L91.8278 17.2459Z" fill="black" style="mix-blend-mode:multiply" shape-rendering="crispEdges"/>
</g>
<path d="M91.8278 17.2459C96.9861 14.2677 103.341 14.2677 108.5 17.2458L161.153 47.6451C166.311 50.6232 169.489 56.127 169.489 62.0833V122.882C169.489 128.838 166.311 134.342 161.153 137.32L108.5 167.719C103.341 170.697 96.9861 170.697 91.8278 167.719L39.1748 137.32C34.0165 134.342 30.8389 128.838 30.8389 122.882V62.0833C30.8389 56.127 34.0165 50.6232 39.1748 47.6451L91.8278 17.2459Z" fill="#0C3855"/>
<path d="M91.8278 17.2459C96.9861 14.2677 103.341 14.2677 108.5 17.2458L161.153 47.6451C166.311 50.6232 169.489 56.127 169.489 62.0833V122.882C169.489 128.838 166.311 134.342 161.153 137.32L108.5 167.719C103.341 170.697 96.9861 170.697 91.8278 167.719L39.1748 137.32C34.0165 134.342 30.8389 128.838 30.8389 122.882V62.0833C30.8389 56.127 34.0165 50.6232 39.1748 47.6451L91.8278 17.2459Z" fill="#FFCB6B"/>
<path d="M91.9077 6.81905C97.0728 3.83701 103.436 3.83701 108.601 6.81905L161.323 37.2581C166.488 40.2402 169.67 45.7512 169.67 51.7153V112.593C169.67 118.557 166.488 124.069 161.323 127.051L108.601 157.49C103.436 160.472 97.0728 160.472 91.9077 157.49L39.1857 127.051C34.0207 124.069 30.8389 118.557 30.8389 112.593V51.7153C30.8389 45.7512 34.0207 40.2402 39.1857 37.2581L91.9077 6.81905Z" fill="#B78323"/>
<path d="M94.8564 22.2041C98.1969 20.2755 102.313 20.2755 105.653 22.2041L149.474 47.5039C152.814 49.4325 154.872 52.9973 154.872 56.8545V107.454C154.872 111.311 152.814 114.876 149.474 116.805L105.653 142.104C102.313 144.033 98.1969 144.033 94.8564 142.104L51.0352 116.805C47.6947 114.876 45.6367 111.311 45.6367 107.454V56.8545C45.6367 52.9973 47.6948 49.4326 51.0352 47.5039L94.8564 22.2041Z" fill="#553700" stroke="#E7B353" stroke-width="4.89947"/>
<path d="M79.849 84.0135C78.2394 83.3148 78.2886 81.0155 79.9266 80.3863L92.5327 75.5441C93.0617 75.3409 93.4768 74.9187 93.671 74.3864L97.834 62.977C98.4639 61.2507 100.91 61.2626 101.523 62.995L105.547 74.3686C105.739 74.9114 106.161 75.3422 106.699 75.5467L119.498 80.4112C121.135 81.0333 121.196 83.3262 119.595 84.0351L107.117 89.5598C106.653 89.7655 106.286 90.1437 106.095 90.6145L101.568 101.763C100.9 103.409 98.5614 103.388 97.9234 101.729L93.6603 90.6474C93.4716 90.1568 93.0937 89.7626 92.6115 89.5533L79.849 84.0135Z" fill="#D9A846"/>
<defs>
<filter id="filter0_d_306_4746" x="22.503" y="15.0122" width="155.321" height="171.612" filterUnits="userSpaceOnUse" color-interpolation-filters="sRGB">
<feFlood flood-opacity="0" result="BackgroundImageFix"/>
<feColorMatrix in="SourceAlpha" type="matrix" values="0 0 0 0 0 0 0 0 0 0 0 0 0 0 0 0 0 0 127 0" result="hardAlpha"/>
<feOffset dy="8.33591"/>
<feGaussianBlur stdDeviation="4.16796"/>
<feComposite in2="hardAlpha" operator="out"/>
<feColorMatrix type="matrix" values="0 0 0 0 0 0 0 0 0 0 0 0 0 0 0 0 0 0 0.25 0"/>
<feBlend mode="normal" in2="BackgroundImageFix" result="effect1_dropShadow_306_4746"/>
<feBlend mode="normal" in="SourceGraphic" in2="effect1_dropShadow_306_4746" result="shape"/>
</filter>
<linearGradient id="paint0_linear_306_4746" x1="99.9128" y1="141.623" x2="99.9128" y2="197.979" gradientUnits="userSpaceOnUse">
<stop stop-color="#7B1012"/>
<stop offset="1" stop-color="#EA1140"/>
</linearGradient>
<linearGradient id="paint1_linear_306_4746" x1="99.9128" y1="129.746" x2="99.9128" y2="197.979" gradientUnits="userSpaceOnUse">
<stop stop-color="#E67D2D"/>
<stop offset="1" stop-color="#FCDC60"/>
</linearGradient>
<linearGradient id="paint2_linear_306_4746" x1="45.0649" y1="79.1332" x2="-1.60324" y2="52.1893" gradientUnits="userSpaceOnUse">
<stop stop-color="#432C00"/>
<stop offset="1" stop-color="#E8BA5A"/>
</linearGradient>
<linearGradient id="paint3_linear_306_4746" x1="49.9008" y1="104.709" x2="3.2327" y2="77.7655" gradientUnits="userSpaceOnUse">
<stop stop-color="#432C00"/>
<stop offset="1" stop-color="#E8BA5A"/>
</linearGradient>
<linearGradient id="paint4_linear_306_4746" x1="154.935" y1="79.1332" x2="201.603" y2="52.1893" gradientUnits="userSpaceOnUse">
<stop stop-color="#432C00"/>
<stop offset="1" stop-color="#E8BA5A"/>
</linearGradient>
<linearGradient id="paint5_linear_306_4746" x1="150.099" y1="104.709" x2="196.767" y2="77.7655" gradientUnits="userSpaceOnUse">
<stop stop-color="#432C00"/>
<stop offset="1" stop-color="#E8BA5A"/>
</linearGradient>
<clipPath id="clip0_306_4746">
<rect width="45.8475" height="103.157" fill="white" transform="matrix(-1 0 0 1 45.8486 41.1958)"/>
</clipPath>
<clipPath id="clip1_306_4746">
<rect width="51.0575" height="101.073" fill="white" transform="matrix(-1 0 0 1 51.0576 41.1958)"/>
</clipPath>
<clipPath id="clip2_306_4746">
<rect width="45.8475" height="103.157" fill="white" transform="translate(154.151 41.1958)"/>
</clipPath>
<clipPath id="clip3_306_4746">
<rect width="51.0575" height="101.073" fill="white" transform="translate(148.942 41.1958)"/>
</clipPath>
</defs>
</svg>
