<svg width="200" height="200" viewBox="0 0 200 200" fill="none" xmlns="http://www.w3.org/2000/svg">
<path d="M66.2393 97.4736H133.871C134.963 97.4736 135.849 98.359 135.849 99.4512V188.154C135.849 189.587 134.373 190.545 133.065 189.961L101.667 175.948C100.641 175.49 99.4691 175.491 98.4434 175.948L67.0449 189.961C65.7369 190.545 64.2617 189.587 64.2617 188.154V99.4512C64.2617 98.359 65.1471 97.4736 66.2393 97.4736Z" fill="url(#paint0_linear_306_4716)" stroke="url(#paint1_linear_306_4716)" stroke-width="1.97755"/>
<g clip-path="url(#clip0_306_4716)">
<path d="M59.5264 89.3696L15.2995 63.8352C8.62972 75.3876 12.5879 90.1595 24.1402 96.8293L47.4497 110.287L59.5264 89.3696Z" fill="#2B0B77"/>
<path d="M65.5742 113.044L21.3473 87.5095C14.6776 99.0619 18.6357 113.834 30.1881 120.504L53.4976 133.961L65.5742 113.044Z" fill="#2B0B77"/>
</g>
<path d="M54.8027 64.1885L11.999 39.4757C11.864 39.3978 11.6914 39.444 11.6135 39.579C5.19939 50.6885 9.00578 64.8941 20.1153 71.3082L43.0479 84.5484L54.8027 64.1885Z" fill="#2B0B77"/>
<g clip-path="url(#clip1_306_4716)">
<path d="M54.8125 55.2563L10.5856 29.7219C3.91585 41.2743 7.87398 56.0463 19.4263 62.716L42.7358 76.1738L54.8125 55.2563Z" fill="url(#paint2_linear_306_4716)"/>
<path d="M54.8125 55.2563L10.5856 29.7219C3.91585 41.2743 7.87398 56.0463 19.4263 62.716L42.7358 76.1738L54.8125 55.2563Z" fill="url(#paint3_linear_306_4716)" style="mix-blend-mode:color"/>
<path d="M59.3945 79.4946L15.1676 53.9602C8.49788 65.5126 12.456 80.2845 24.0084 86.9543L47.3179 100.412L59.3945 79.4946Z" fill="url(#paint4_linear_306_4716)"/>
<path d="M59.3945 79.4946L15.1676 53.9602C8.49788 65.5126 12.456 80.2845 24.0084 86.9543L47.3179 100.412L59.3945 79.4946Z" fill="url(#paint5_linear_306_4716)" style="mix-blend-mode:color"/>
<path d="M65.4424 103.169L21.2155 77.635C14.5457 89.1874 18.5039 103.959 30.0562 110.629L53.3657 124.087L65.4424 103.169Z" fill="url(#paint6_linear_306_4716)"/>
<path d="M65.4424 103.169L21.2155 77.635C14.5457 89.1874 18.5039 103.959 30.0562 110.629L53.3657 124.087L65.4424 103.169Z" fill="url(#paint7_linear_306_4716)" style="mix-blend-mode:color"/>
</g>
<g clip-path="url(#clip2_306_4716)">
<path d="M140.474 89.3696L184.701 63.8352C191.37 75.3876 187.412 90.1595 175.86 96.8293L152.55 110.287L140.474 89.3696Z" fill="#2B0B77"/>
<path d="M134.425 113.044L178.652 87.5095C185.321 99.0619 181.363 113.834 169.811 120.504L146.501 133.961L134.425 113.044Z" fill="#2B0B77"/>
</g>
<path d="M145.197 64.1885L188.001 39.4757C188.136 39.3978 188.309 39.444 188.387 39.579C194.801 50.6885 190.994 64.8941 179.885 71.3082L156.952 84.5484L145.197 64.1885Z" fill="#2B0B77"/>
<g clip-path="url(#clip3_306_4716)">
<path d="M145.188 55.2563L189.414 29.7219C196.084 41.2743 192.126 56.0463 180.574 62.716L157.264 76.1738L145.188 55.2563Z" fill="url(#paint8_linear_306_4716)"/>
<path d="M145.188 55.2563L189.414 29.7219C196.084 41.2743 192.126 56.0463 180.574 62.716L157.264 76.1738L145.188 55.2563Z" fill="#FFCB6B" style="mix-blend-mode:color"/>
<path d="M145.188 55.2563L189.414 29.7219C196.084 41.2743 192.126 56.0463 180.574 62.716L157.264 76.1738L145.188 55.2563Z" fill="url(#paint9_linear_306_4716)" style="mix-blend-mode:color"/>
<path d="M140.605 79.4946L184.832 53.9602C191.502 65.5126 187.544 80.2845 175.992 86.9543L152.682 100.412L140.605 79.4946Z" fill="url(#paint10_linear_306_4716)"/>
<path d="M140.605 79.4946L184.832 53.9602C191.502 65.5126 187.544 80.2845 175.992 86.9543L152.682 100.412L140.605 79.4946Z" fill="#FFCB6B" style="mix-blend-mode:color"/>
<path d="M140.605 79.4946L184.832 53.9602C191.502 65.5126 187.544 80.2845 175.992 86.9543L152.682 100.412L140.605 79.4946Z" fill="url(#paint11_linear_306_4716)" style="mix-blend-mode:color"/>
<path d="M134.558 103.169L178.785 77.635C185.454 89.1874 181.496 103.959 169.944 110.629L146.634 124.087L134.558 103.169Z" fill="url(#paint12_linear_306_4716)"/>
<path d="M134.558 103.169L178.785 77.635C185.454 89.1874 181.496 103.959 169.944 110.629L146.634 124.087L134.558 103.169Z" fill="#FFCB6B" style="mix-blend-mode:color"/>
<path d="M134.558 103.169L178.785 77.635C185.454 89.1874 181.496 103.959 169.944 110.629L146.634 124.087L134.558 103.169Z" fill="url(#paint13_linear_306_4716)" style="mix-blend-mode:color"/>
</g>
<g filter="url(#filter0_d_306_4716)">
<path d="M92.4138 21.1728C97.3022 18.3505 103.325 18.3505 108.214 21.1728L156.361 48.9709C161.25 51.7932 164.261 57.0092 164.261 62.6539V118.25C164.261 123.895 161.25 129.111 156.361 131.933L108.214 159.731C103.325 162.553 97.3022 162.553 92.4138 159.731L44.2661 131.933C39.3776 129.111 36.3662 123.895 36.3662 118.25V62.6539C36.3662 57.0092 39.3776 51.7932 44.2661 48.9709L92.4138 21.1728Z" fill="black" style="mix-blend-mode:multiply" shape-rendering="crispEdges"/>
</g>
<path d="M92.4138 21.1728C97.3022 18.3505 103.325 18.3505 108.214 21.1728L156.361 48.9709C161.25 51.7932 164.261 57.0092 164.261 62.6539V118.25C164.261 123.895 161.25 129.111 156.361 131.933L108.214 159.731C103.325 162.553 97.3022 162.553 92.4138 159.731L44.2661 131.933C39.3776 129.111 36.3662 123.895 36.3662 118.25V62.6539C36.3662 57.0092 39.3776 51.7932 44.2661 48.9709L92.4138 21.1728Z" fill="#2B0B77"/>
<path d="M92.4138 11.561C97.3022 8.73864 103.325 8.73864 108.214 11.561L156.361 39.3591C161.25 42.1814 164.261 47.3973 164.261 53.042V108.638C164.261 114.283 161.25 119.499 156.361 122.321L108.214 150.119C103.325 152.942 97.3022 152.942 92.4138 150.119L44.2661 122.321C39.3776 119.499 36.3662 114.283 36.3662 108.638V53.042C36.3662 47.3974 39.3776 42.1814 44.2661 39.3591L92.4138 11.561Z" fill="#8679FF"/>
<path d="M95.2021 25.6167C98.3646 23.7909 102.261 23.7909 105.424 25.6167L145.582 48.8022C148.745 50.6281 150.692 54.003 150.692 57.6548V104.026C150.692 107.677 148.744 111.052 145.582 112.877L105.424 136.063C102.261 137.889 98.3647 137.889 95.2021 136.063L55.0439 112.877C51.8816 111.052 49.9338 107.677 49.9336 104.026V57.6548C49.9336 54.003 51.8814 50.6281 55.0439 48.8022L95.2021 25.6167Z" fill="#70118C" stroke="#A19BFF" stroke-width="4.64317"/>
<path d="M97.7946 61.611C98.8053 59.493 101.82 59.493 102.831 61.611L107.266 70.9047C107.672 71.7571 108.483 72.3459 109.419 72.4693L119.628 73.8151C121.955 74.1218 122.887 76.9891 121.185 78.6049L113.716 85.6945C113.031 86.3447 112.722 87.2974 112.894 88.2261L114.769 98.3516C115.196 100.659 112.757 102.431 110.694 101.312L101.644 96.3997C100.814 95.9491 99.8119 95.9491 98.9818 96.3997L89.9313 101.312C87.8687 102.431 85.4296 100.659 85.8569 98.3516L87.7318 88.2261C87.9038 87.2974 87.5942 86.3447 86.9092 85.6945L79.4408 78.6049C77.7387 76.9891 78.6704 74.1218 80.9971 73.8151L91.2064 72.4693C92.1427 72.3459 92.9531 71.7571 93.3598 70.9047L97.7946 61.611Z" fill="#AE74FE"/>
<defs>
<filter id="filter0_d_306_4716" x="28.4664" y="19.0562" width="143.694" height="158.591" filterUnits="userSpaceOnUse" color-interpolation-filters="sRGB">
<feFlood flood-opacity="0" result="BackgroundImageFix"/>
<feColorMatrix in="SourceAlpha" type="matrix" values="0 0 0 0 0 0 0 0 0 0 0 0 0 0 0 0 0 0 127 0" result="hardAlpha"/>
<feOffset dy="7.89986"/>
<feGaussianBlur stdDeviation="3.94993"/>
<feComposite in2="hardAlpha" operator="out"/>
<feColorMatrix type="matrix" values="0 0 0 0 0 0 0 0 0 0 0 0 0 0 0 0 0 0 0.25 0"/>
<feBlend mode="normal" in2="BackgroundImageFix" result="effect1_dropShadow_306_4716"/>
<feBlend mode="normal" in="SourceGraphic" in2="effect1_dropShadow_306_4716" result="shape"/>
</filter>
<linearGradient id="paint0_linear_306_4716" x1="100.055" y1="140.742" x2="100.055" y2="192.727" gradientUnits="userSpaceOnUse">
<stop stop-color="#7B1012"/>
<stop offset="1" stop-color="#EA1140"/>
</linearGradient>
<linearGradient id="paint1_linear_306_4716" x1="100.055" y1="129.787" x2="100.055" y2="192.727" gradientUnits="userSpaceOnUse">
<stop stop-color="#E67D2D"/>
<stop offset="1" stop-color="#FCDC60"/>
</linearGradient>
<linearGradient id="paint2_linear_306_4716" x1="48.7742" y1="65.7151" x2="4.54728" y2="40.1806" gradientUnits="userSpaceOnUse">
<stop stop-color="#432C00"/>
<stop offset="1" stop-color="#E8BA5A"/>
</linearGradient>
<linearGradient id="paint3_linear_306_4716" x1="0.493328" y1="22.8416" x2="54.7035" y2="38.6876" gradientUnits="userSpaceOnUse">
<stop stop-color="#C64DBA"/>
<stop offset="1" stop-color="#1A2FE9"/>
</linearGradient>
<linearGradient id="paint4_linear_306_4716" x1="53.3562" y1="89.9533" x2="9.12931" y2="64.4189" gradientUnits="userSpaceOnUse">
<stop stop-color="#432C00"/>
<stop offset="1" stop-color="#E8BA5A"/>
</linearGradient>
<linearGradient id="paint5_linear_306_4716" x1="5.07536" y1="47.0799" x2="59.2855" y2="62.9259" gradientUnits="userSpaceOnUse">
<stop stop-color="#C64DBA"/>
<stop offset="1" stop-color="#1A2FE9"/>
</linearGradient>
<linearGradient id="paint6_linear_306_4716" x1="59.404" y1="113.628" x2="15.1772" y2="88.0937" gradientUnits="userSpaceOnUse">
<stop stop-color="#432C00"/>
<stop offset="1" stop-color="#E8BA5A"/>
</linearGradient>
<linearGradient id="paint7_linear_306_4716" x1="11.1232" y1="70.7547" x2="65.3333" y2="86.6007" gradientUnits="userSpaceOnUse">
<stop stop-color="#C64DBA"/>
<stop offset="1" stop-color="#1A2FE9"/>
</linearGradient>
<linearGradient id="paint8_linear_306_4716" x1="151.226" y1="65.7151" x2="195.453" y2="40.1806" gradientUnits="userSpaceOnUse">
<stop stop-color="#432C00"/>
<stop offset="1" stop-color="#E8BA5A"/>
</linearGradient>
<linearGradient id="paint9_linear_306_4716" x1="199.507" y1="22.8416" x2="145.297" y2="38.6876" gradientUnits="userSpaceOnUse">
<stop stop-color="#C64DBA"/>
<stop offset="1" stop-color="#1A2FE9"/>
</linearGradient>
<linearGradient id="paint10_linear_306_4716" x1="146.644" y1="89.9533" x2="190.871" y2="64.4189" gradientUnits="userSpaceOnUse">
<stop stop-color="#432C00"/>
<stop offset="1" stop-color="#E8BA5A"/>
</linearGradient>
<linearGradient id="paint11_linear_306_4716" x1="194.925" y1="47.0799" x2="140.715" y2="62.9259" gradientUnits="userSpaceOnUse">
<stop stop-color="#C64DBA"/>
<stop offset="1" stop-color="#1A2FE9"/>
</linearGradient>
<linearGradient id="paint12_linear_306_4716" x1="140.596" y1="113.628" x2="184.823" y2="88.0937" gradientUnits="userSpaceOnUse">
<stop stop-color="#432C00"/>
<stop offset="1" stop-color="#E8BA5A"/>
</linearGradient>
<linearGradient id="paint13_linear_306_4716" x1="188.877" y1="70.7547" x2="134.667" y2="86.6007" gradientUnits="userSpaceOnUse">
<stop stop-color="#C64DBA"/>
<stop offset="1" stop-color="#1A2FE9"/>
</linearGradient>
<clipPath id="clip0_306_4716">
<rect width="42.2912" height="95.1552" fill="white" transform="matrix(-1 0 0 1 49.6475 29.7617)"/>
</clipPath>
<clipPath id="clip1_306_4716">
<rect width="47.097" height="93.2329" fill="white" transform="matrix(-1 0 0 1 54.4531 29.7617)"/>
</clipPath>
<clipPath id="clip2_306_4716">
<rect width="42.2912" height="95.1552" fill="white" transform="translate(150.353 29.7617)"/>
</clipPath>
<clipPath id="clip3_306_4716">
<rect width="47.097" height="93.2329" fill="white" transform="translate(145.547 29.7617)"/>
</clipPath>
</defs>
</svg>
