<svg width="200" height="200" viewBox="0 0 200 200" fill="none" xmlns="http://www.w3.org/2000/svg">
<path d="M64.4551 89.2417H135.048C140.467 89.2417 144.861 93.6346 144.861 99.0542V160.815C144.861 164.132 143.186 167.224 140.407 169.036L105.111 192.044C101.854 194.168 97.6498 194.168 94.3926 192.044L59.0967 169.036C56.318 167.224 54.6427 164.132 54.6426 160.815V99.0542C54.6428 93.6348 59.0356 89.2419 64.4551 89.2417Z" fill="url(#paint0_linear_306_4772)" stroke="url(#paint1_linear_306_4772)" stroke-width="2.80382"/>
<g clip-path="url(#clip0_306_4772)">
<path d="M56.5547 90.2871L10.5096 63.703C10.3644 63.6191 10.1787 63.6689 10.0949 63.8141C3.19513 75.7649 7.28975 91.0462 19.2405 97.946L43.9098 112.189L56.5547 90.2871Z" fill="#22323A"/>
</g>
<g clip-path="url(#clip1_306_4772)">
<path d="M56.5547 80.6284L10.2467 53.8925C3.2631 65.9884 7.40747 81.4555 19.5034 88.4391L43.9098 102.53L56.5547 80.6284Z" fill="url(#paint2_linear_306_4772)"/>
<path d="M56.5547 80.6284L10.2467 53.8925C3.2631 65.9884 7.40747 81.4555 19.5034 88.4391L43.9098 102.53L56.5547 80.6284Z" fill="#E8F7FF" style="mix-blend-mode:color"/>
</g>
<g clip-path="url(#clip2_306_4772)">
<path d="M143.446 90.2871L189.491 63.703C189.637 63.6191 189.822 63.6689 189.906 63.8141C196.806 75.7649 192.711 91.0462 180.76 97.946L156.091 112.189L143.446 90.2871Z" fill="#22323A"/>
</g>
<g clip-path="url(#clip3_306_4772)">
<path d="M143.446 80.6284L189.754 53.8925C196.738 65.9884 192.594 81.4555 180.498 88.4391L156.091 102.53L143.446 80.6284Z" fill="url(#paint3_linear_306_4772)"/>
<path d="M143.446 80.6284L189.754 53.8925C196.738 65.9884 192.594 81.4555 180.498 88.4391L156.091 102.53L143.446 80.6284Z" fill="#E8F7FF" style="mix-blend-mode:color"/>
</g>
<g filter="url(#filter0_d_306_4772)">
<path d="M91.7974 17.4348C96.9158 14.4796 103.222 14.4796 108.34 17.4348L156.06 44.9853C161.178 47.9405 164.331 53.4018 164.331 59.3122V114.413C164.331 120.324 161.178 125.785 156.06 128.74L108.34 156.291C103.222 159.246 96.9158 159.246 91.7974 156.291L44.0782 128.74C38.9598 125.785 35.8066 120.324 35.8066 114.413V59.3121C35.8066 53.4018 38.9598 47.9405 44.0782 44.9853L91.7974 17.4348Z" fill="black" style="mix-blend-mode:multiply" shape-rendering="crispEdges"/>
</g>
<path d="M91.7974 17.4348C96.9158 14.4796 103.222 14.4796 108.34 17.4348L156.06 44.9853C161.178 47.9405 164.331 53.4018 164.331 59.3122V114.413C164.331 120.324 161.178 125.785 156.06 128.74L108.34 156.291C103.222 159.246 96.9158 159.246 91.7974 156.291L44.0782 128.74C38.9598 125.785 35.8066 120.324 35.8066 114.413V59.3121C35.8066 53.4018 38.9598 47.9405 44.0782 44.9853L91.7974 17.4348Z" fill="#0C3855"/>
<path d="M91.7974 17.4348C96.9158 14.4796 103.222 14.4796 108.34 17.4348L156.06 44.9853C161.178 47.9405 164.331 53.4018 164.331 59.3122V114.413C164.331 120.324 161.178 125.785 156.06 128.74L108.34 156.291C103.222 159.246 96.9158 159.246 91.7974 156.291L44.0782 128.74C38.9598 125.785 35.8066 120.324 35.8066 114.413V59.3121C35.8066 53.4018 38.9598 47.9405 44.0782 44.9853L91.7974 17.4348Z" fill="#E8F7FF"/>
<path d="M91.7974 7.77558C96.9158 4.82044 103.222 4.82044 108.34 7.77558L156.06 35.3262C161.178 38.2813 164.331 43.7427 164.331 49.653V104.754C164.331 110.664 161.178 116.126 156.06 119.081L108.34 146.631C103.222 149.587 96.9158 149.587 91.7974 146.631L44.0782 119.081C38.9598 116.126 35.8066 110.664 35.8066 104.754V49.653C35.8066 43.7427 38.9598 38.2813 44.0782 35.3262L91.7974 7.77558Z" fill="#829199"/>
<path d="M94.7188 21.7231C98.0291 19.812 102.108 19.812 105.418 21.7231L145.441 44.8306C148.752 46.7418 150.791 50.2739 150.791 54.0962V100.311C150.791 104.133 148.752 107.665 145.441 109.577L105.418 132.684C102.108 134.595 98.0291 134.595 94.7188 132.684L54.6953 109.577C51.3851 107.665 49.3457 104.133 49.3457 100.311V54.0962C49.3458 50.2739 51.3851 46.7417 54.6953 44.8306L94.7188 21.7231Z" fill="#2E3D45" stroke="#A8B7BF" stroke-width="4.8553"/>
<rect width="30.6764" height="30.6764" rx="1.94212" transform="matrix(0.707108 -0.707106 0.707108 0.707106 78.0146 80.0278)" fill="#8D9CA4"/>
<defs>
<filter id="filter0_d_306_4772" x="27.5351" y="15.2183" width="145.068" height="159.832" filterUnits="userSpaceOnUse" color-interpolation-filters="sRGB">
<feFlood flood-opacity="0" result="BackgroundImageFix"/>
<feColorMatrix in="SourceAlpha" type="matrix" values="0 0 0 0 0 0 0 0 0 0 0 0 0 0 0 0 0 0 127 0" result="hardAlpha"/>
<feOffset dy="8.27158"/>
<feGaussianBlur stdDeviation="4.13579"/>
<feComposite in2="hardAlpha" operator="out"/>
<feColorMatrix type="matrix" values="0 0 0 0 0 0 0 0 0 0 0 0 0 0 0 0 0 0 0.25 0"/>
<feBlend mode="normal" in2="BackgroundImageFix" result="effect1_dropShadow_306_4772"/>
<feBlend mode="normal" in="SourceGraphic" in2="effect1_dropShadow_306_4772" result="shape"/>
</filter>
<linearGradient id="paint0_linear_306_4772" x1="99.7519" y1="138.135" x2="99.7519" y2="197.212" gradientUnits="userSpaceOnUse">
<stop stop-color="#7B1012"/>
<stop offset="1" stop-color="#EA1140"/>
</linearGradient>
<linearGradient id="paint1_linear_306_4772" x1="99.7519" y1="125.685" x2="99.7519" y2="197.212" gradientUnits="userSpaceOnUse">
<stop stop-color="#E67D2D"/>
<stop offset="1" stop-color="#FCDC60"/>
</linearGradient>
<linearGradient id="paint2_linear_306_4772" x1="50.2322" y1="91.5793" x2="3.92424" y2="64.8433" gradientUnits="userSpaceOnUse">
<stop stop-color="#22323A"/>
<stop offset="1" stop-color="#AFBFC7"/>
</linearGradient>
<linearGradient id="paint3_linear_306_4772" x1="149.769" y1="91.5793" x2="196.077" y2="64.8433" gradientUnits="userSpaceOnUse">
<stop stop-color="#22323A"/>
<stop offset="1" stop-color="#AFBFC7"/>
</linearGradient>
<clipPath id="clip0_306_4772">
<rect width="35.8063" height="68.748" fill="white" transform="matrix(-1 0 0 1 35.8066 63.459)"/>
</clipPath>
<clipPath id="clip1_306_4772">
<rect width="35.8063" height="68.748" fill="white" transform="matrix(-1 0 0 1 35.8066 53.7998)"/>
</clipPath>
<clipPath id="clip2_306_4772">
<rect width="35.8063" height="68.748" fill="white" transform="translate(164.194 63.459)"/>
</clipPath>
<clipPath id="clip3_306_4772">
<rect width="35.8063" height="68.748" fill="white" transform="translate(164.194 53.7998)"/>
</clipPath>
</defs>
</svg>
