<svg width="50" height="50" viewBox="0 0 50 50" fill="none" xmlns="http://www.w3.org/2000/svg">
<path d="M8 39.2917V20.5417C8 19.8819 8.14792 19.2569 8.44375 18.6667C8.73958 18.0764 9.14722 17.5903 9.66667 17.2083L22.1667 7.83333C22.8958 7.27778 23.7292 7 24.6667 7C25.6042 7 26.4375 7.27778 27.1667 7.83333L39.6667 17.2083C40.1875 17.5903 40.5958 18.0764 40.8917 18.6667C41.1875 19.2569 41.3347 19.8819 41.3333 20.5417V39.2917C41.3333 40.4375 40.925 41.4187 40.1083 42.2354C39.2917 43.0521 38.3111 43.4597 37.1667 43.4583H29.83C29.2397 43.4583 28.7486 43.2583 28.35 42.8583C27.9514 42.4583 27.7514 41.9639 27.75 41.375V30.9583H21.58V41.375C21.58 41.9653 21.38 42.4604 20.98 42.8604C20.58 43.2604 20.0889 43.4597 19.5 43.4583H12.1667C11.0208 43.4583 10.0403 43.0507 9.225 42.2354C8.40972 41.4201 8.00139 40.4389 8 39.2917Z" stroke="black" stroke-width="2"/>
</svg>
