<svg width="50" height="50" viewBox="0 0 50 50" fill="none" xmlns="http://www.w3.org/2000/svg">
<path d="M31.25 43.7499H18.75M31.25 43.7499V26.25C31.25 25.9184 31.1183 25.6005 30.8839 25.3661C30.6495 25.1316 30.3315 25 30 25H20C19.6685 25 19.3505 25.1316 19.1161 25.3661C18.8817 25.6005 18.75 25.9184 18.75 26.25V43.7499M31.25 43.7499H42.5C42.8315 43.7499 43.1495 43.6183 43.3839 43.3838C43.6183 43.1494 43.75 42.8315 43.75 42.4999V37.7083C43.75 37.3768 43.6183 37.0588 43.3839 36.8244C43.1495 36.59 42.8315 36.4583 42.5 36.4583H32.5C32.1685 36.4583 31.8505 36.59 31.6161 36.8244C31.3817 37.0588 31.25 37.3768 31.25 37.7083V43.7499ZM18.75 43.7499V33.5416C18.75 33.2101 18.6183 32.8922 18.3839 32.6577C18.1495 32.4233 17.8315 32.2916 17.5 32.2916H7.5C7.16848 32.2916 6.85054 32.4233 6.61612 32.6577C6.3817 32.8922 6.25 33.2101 6.25 33.5416V42.4999C6.25 42.8315 6.3817 43.1494 6.61612 43.3838C6.85054 43.6183 7.16848 43.7499 7.5 43.7499H18.75ZM22.5125 10.652L24.4062 6.63745C24.4574 6.52269 24.5407 6.4252 24.646 6.35678C24.7514 6.28836 24.8744 6.25195 25 6.25195C25.1256 6.25195 25.2486 6.28836 25.354 6.35678C25.4593 6.4252 25.5426 6.52269 25.5937 6.63745L27.4896 10.652L31.7229 11.3C32.2667 11.3833 32.4833 12.0833 32.0896 12.4833L29.0271 15.6083L29.75 20.0208C29.8417 20.5875 29.275 21.0208 28.7875 20.752L25 18.6687L21.2125 20.752C20.7271 21.0187 20.1583 20.5875 20.25 20.0208L20.9729 15.6083L17.9104 12.4833C17.5146 12.0833 17.7333 11.3833 18.275 11.3L22.5125 10.652Z" stroke="black" stroke-width="2" stroke-linecap="round" stroke-linejoin="round"/>
</svg>
