<svg width="30" height="30" viewBox="0 0 30 30" fill="none" xmlns="http://www.w3.org/2000/svg">
<path d="M6.75 11.8751H2.75C2.83333 11.5834 2.94292 11.3072 3.07875 11.0463C3.21458 10.7855 3.37583 10.5305 3.5625 10.2813L8.375 3.84382C8.72917 3.36466 9.20333 3.04674 9.7975 2.89007C10.3917 2.73341 10.9592 2.80132 11.5 3.09382L12.375 3.53132C12.8125 3.76049 13.1512 4.07299 13.3912 4.46882C13.6312 4.86466 13.7508 5.30216 13.75 5.78132V8.40632L16.0625 7.81257C16.6875 7.64591 17.2917 7.72424 17.875 8.04757C18.4583 8.37091 18.8542 8.83424 19.0625 9.43757L21.0938 15.5626L26.4063 20.8751C26.8229 21.2917 27.1096 21.7397 27.2663 22.2188C27.4229 22.698 27.5008 23.2084 27.5 23.7501C27.5 24.5209 27.2917 25.2084 26.875 25.8126C26.4583 26.4167 25.9167 26.8647 25.25 27.1563L11.0625 13.5938C10.4583 13.0313 9.79167 12.6042 9.0625 12.3126C8.33333 12.0209 7.5625 11.8751 6.75 11.8751ZM17.6875 27.5001C17.0625 27.5001 16.4688 27.3855 15.9063 27.1563C15.3438 26.9272 14.8229 26.6042 14.3438 26.1876L4.1875 16.9688C3.79167 16.6147 3.46875 16.2138 3.21875 15.7663C2.96875 15.3188 2.79167 14.8551 2.6875 14.3751H6.75C7.22917 14.3751 7.69292 14.4584 8.14125 14.6251C8.58958 14.7917 8.99042 15.0522 9.34375 15.4063L21.9688 27.5001H17.6875Z" fill="black"/>
</svg>
